<mxfile host="app.diagrams.net" modified="2024-07-23T05:48:27.045Z" agent="Mozilla/5.0 (Windows NT 10.0; Win64; x64) AppleWebKit/537.36 (KHTML, like Gecko) Chrome/126.0.0.0 Safari/537.36 Edg/126.0.0.0" etag="rPTBzT80v8pAjQaJo7e4" version="24.7.3" type="github">
  <diagram name="Page-1" id="cNW_0x3yeWOU_eK-k_vI">
    <mxGraphModel dx="786" dy="477" grid="1" gridSize="10" guides="1" tooltips="1" connect="1" arrows="1" fold="1" page="1" pageScale="1" pageWidth="850" pageHeight="1100" math="0" shadow="0">
      <root>
        <mxCell id="0" />
        <mxCell id="1" parent="0" />
        <mxCell id="Vdz7RE_2nEgorDpmRRXa-21" style="edgeStyle=orthogonalEdgeStyle;rounded=0;orthogonalLoop=1;jettySize=auto;html=1;exitX=0.5;exitY=0.5;exitDx=0;exitDy=20;exitPerimeter=0;entryX=0.5;entryY=0;entryDx=0;entryDy=0;" edge="1" parent="1" source="Vdz7RE_2nEgorDpmRRXa-1" target="Vdz7RE_2nEgorDpmRRXa-20">
          <mxGeometry relative="1" as="geometry" />
        </mxCell>
        <mxCell id="Vdz7RE_2nEgorDpmRRXa-1" value="Start" style="html=1;dashed=0;whiteSpace=wrap;shape=mxgraph.dfd.start;fontSize=11;" vertex="1" parent="1">
          <mxGeometry x="174.5" y="60" width="160" height="40" as="geometry" />
        </mxCell>
        <mxCell id="Vdz7RE_2nEgorDpmRRXa-23" style="edgeStyle=orthogonalEdgeStyle;rounded=0;orthogonalLoop=1;jettySize=auto;html=1;exitX=0.5;exitY=1;exitDx=0;exitDy=0;entryX=0.5;entryY=0;entryDx=0;entryDy=0;" edge="1" parent="1" source="Vdz7RE_2nEgorDpmRRXa-4" target="Vdz7RE_2nEgorDpmRRXa-6">
          <mxGeometry relative="1" as="geometry" />
        </mxCell>
        <mxCell id="Vdz7RE_2nEgorDpmRRXa-4" value="&quot;User Migration Process&quot;" style="shape=parallelogram;perimeter=parallelogramPerimeter;whiteSpace=wrap;html=1;fixedSize=1;fontSize=11;" vertex="1" parent="1">
          <mxGeometry x="154.19" y="190" width="200.62" height="50" as="geometry" />
        </mxCell>
        <mxCell id="Vdz7RE_2nEgorDpmRRXa-24" style="edgeStyle=orthogonalEdgeStyle;rounded=0;orthogonalLoop=1;jettySize=auto;html=1;exitX=1;exitY=0.5;exitDx=0;exitDy=0;entryX=1;entryY=0.5;entryDx=0;entryDy=0;" edge="1" parent="1" source="Vdz7RE_2nEgorDpmRRXa-6" target="Vdz7RE_2nEgorDpmRRXa-4">
          <mxGeometry relative="1" as="geometry">
            <Array as="points">
              <mxPoint x="377" y="295" />
              <mxPoint x="377" y="215" />
            </Array>
          </mxGeometry>
        </mxCell>
        <mxCell id="Vdz7RE_2nEgorDpmRRXa-25" value="&lt;font style=&quot;font-size: 10px;&quot;&gt;Yes&lt;/font&gt;" style="edgeLabel;html=1;align=center;verticalAlign=middle;resizable=0;points=[];" vertex="1" connectable="0" parent="Vdz7RE_2nEgorDpmRRXa-24">
          <mxGeometry x="-0.618" relative="1" as="geometry">
            <mxPoint as="offset" />
          </mxGeometry>
        </mxCell>
        <mxCell id="Vdz7RE_2nEgorDpmRRXa-26" style="edgeStyle=orthogonalEdgeStyle;rounded=0;orthogonalLoop=1;jettySize=auto;html=1;exitX=0.5;exitY=1;exitDx=0;exitDy=0;entryX=0.5;entryY=0;entryDx=0;entryDy=0;" edge="1" parent="1" source="Vdz7RE_2nEgorDpmRRXa-6" target="Vdz7RE_2nEgorDpmRRXa-7">
          <mxGeometry relative="1" as="geometry" />
        </mxCell>
        <mxCell id="Vdz7RE_2nEgorDpmRRXa-36" value="&lt;font style=&quot;font-size: 10px;&quot;&gt;No&lt;/font&gt;" style="edgeLabel;html=1;align=center;verticalAlign=middle;resizable=0;points=[];" vertex="1" connectable="0" parent="Vdz7RE_2nEgorDpmRRXa-26">
          <mxGeometry x="-0.0333" relative="1" as="geometry">
            <mxPoint as="offset" />
          </mxGeometry>
        </mxCell>
        <mxCell id="Vdz7RE_2nEgorDpmRRXa-6" value="Empty Load File?" style="rhombus;whiteSpace=wrap;html=1;fontSize=11;spacingTop=2;" vertex="1" parent="1">
          <mxGeometry x="198.88" y="260" width="111.25" height="70" as="geometry" />
        </mxCell>
        <mxCell id="Vdz7RE_2nEgorDpmRRXa-28" style="edgeStyle=orthogonalEdgeStyle;rounded=0;orthogonalLoop=1;jettySize=auto;html=1;exitX=0.5;exitY=1;exitDx=0;exitDy=0;entryX=0.5;entryY=0;entryDx=0;entryDy=0;" edge="1" parent="1" source="Vdz7RE_2nEgorDpmRRXa-7" target="Vdz7RE_2nEgorDpmRRXa-8">
          <mxGeometry relative="1" as="geometry" />
        </mxCell>
        <mxCell id="Vdz7RE_2nEgorDpmRRXa-7" value="CHECK EVERY ITEM LINE IN LOAD FILE" style="shape=process;whiteSpace=wrap;html=1;backgroundOutline=1;fontSize=11;size=0;" vertex="1" parent="1">
          <mxGeometry x="145.60000000000002" y="370" width="217.81" height="50" as="geometry" />
        </mxCell>
        <mxCell id="Vdz7RE_2nEgorDpmRRXa-29" style="edgeStyle=orthogonalEdgeStyle;rounded=0;orthogonalLoop=1;jettySize=auto;html=1;exitX=0.5;exitY=1;exitDx=0;exitDy=0;entryX=0.5;entryY=0;entryDx=0;entryDy=0;" edge="1" parent="1" source="Vdz7RE_2nEgorDpmRRXa-8" target="Vdz7RE_2nEgorDpmRRXa-9">
          <mxGeometry relative="1" as="geometry" />
        </mxCell>
        <mxCell id="Vdz7RE_2nEgorDpmRRXa-8" value="FETCHING OF DATA IMPORTED" style="shape=process;whiteSpace=wrap;html=1;backgroundOutline=1;fontSize=11;size=0;" vertex="1" parent="1">
          <mxGeometry x="145.60000000000002" y="440" width="217.81" height="50" as="geometry" />
        </mxCell>
        <mxCell id="Vdz7RE_2nEgorDpmRRXa-30" style="edgeStyle=orthogonalEdgeStyle;rounded=0;orthogonalLoop=1;jettySize=auto;html=1;exitX=0.5;exitY=1;exitDx=0;exitDy=0;entryX=0.5;entryY=0;entryDx=0;entryDy=0;" edge="1" parent="1" source="Vdz7RE_2nEgorDpmRRXa-9" target="Vdz7RE_2nEgorDpmRRXa-10">
          <mxGeometry relative="1" as="geometry" />
        </mxCell>
        <mxCell id="Vdz7RE_2nEgorDpmRRXa-9" value="ME_INFORECORD_MAINTAIN_MULTI" style="shape=process;whiteSpace=wrap;html=1;backgroundOutline=1;fontSize=11;size=0;" vertex="1" parent="1">
          <mxGeometry x="145.60000000000002" y="510" width="217.81" height="50" as="geometry" />
        </mxCell>
        <mxCell id="Vdz7RE_2nEgorDpmRRXa-15" style="edgeStyle=orthogonalEdgeStyle;rounded=0;orthogonalLoop=1;jettySize=auto;html=1;entryX=0.5;entryY=0;entryDx=0;entryDy=0;" edge="1" parent="1" source="Vdz7RE_2nEgorDpmRRXa-10" target="Vdz7RE_2nEgorDpmRRXa-12">
          <mxGeometry relative="1" as="geometry">
            <Array as="points">
              <mxPoint x="177" y="615" />
            </Array>
          </mxGeometry>
        </mxCell>
        <mxCell id="Vdz7RE_2nEgorDpmRRXa-34" value="&lt;font style=&quot;font-size: 10px;&quot;&gt;Yes&lt;/font&gt;" style="edgeLabel;html=1;align=center;verticalAlign=middle;resizable=0;points=[];" vertex="1" connectable="0" parent="Vdz7RE_2nEgorDpmRRXa-15">
          <mxGeometry x="0.2976" y="-1" relative="1" as="geometry">
            <mxPoint as="offset" />
          </mxGeometry>
        </mxCell>
        <mxCell id="Vdz7RE_2nEgorDpmRRXa-16" style="edgeStyle=orthogonalEdgeStyle;rounded=0;orthogonalLoop=1;jettySize=auto;html=1;exitX=1;exitY=0.5;exitDx=0;exitDy=0;entryX=0.5;entryY=0;entryDx=0;entryDy=0;" edge="1" parent="1" source="Vdz7RE_2nEgorDpmRRXa-10" target="Vdz7RE_2nEgorDpmRRXa-13">
          <mxGeometry relative="1" as="geometry" />
        </mxCell>
        <mxCell id="Vdz7RE_2nEgorDpmRRXa-35" value="&lt;font style=&quot;font-size: 10px;&quot;&gt;No&lt;/font&gt;" style="edgeLabel;html=1;align=center;verticalAlign=middle;resizable=0;points=[];" vertex="1" connectable="0" parent="Vdz7RE_2nEgorDpmRRXa-16">
          <mxGeometry x="0.2916" y="1" relative="1" as="geometry">
            <mxPoint as="offset" />
          </mxGeometry>
        </mxCell>
        <mxCell id="Vdz7RE_2nEgorDpmRRXa-10" value="Error?" style="rhombus;whiteSpace=wrap;html=1;fontSize=11;spacingTop=2;" vertex="1" parent="1">
          <mxGeometry x="198.88" y="580" width="111.25" height="70" as="geometry" />
        </mxCell>
        <mxCell id="Vdz7RE_2nEgorDpmRRXa-32" style="edgeStyle=orthogonalEdgeStyle;rounded=0;orthogonalLoop=1;jettySize=auto;html=1;exitX=0;exitY=0.5;exitDx=0;exitDy=0;entryX=0;entryY=0.5;entryDx=0;entryDy=0;" edge="1" parent="1" source="Vdz7RE_2nEgorDpmRRXa-12" target="Vdz7RE_2nEgorDpmRRXa-7">
          <mxGeometry relative="1" as="geometry" />
        </mxCell>
        <mxCell id="Vdz7RE_2nEgorDpmRRXa-12" value="ROLLBACK WORK" style="shape=process;whiteSpace=wrap;html=1;backgroundOutline=1;fontSize=11;size=0;" vertex="1" parent="1">
          <mxGeometry x="117" y="670" width="120" height="50" as="geometry" />
        </mxCell>
        <mxCell id="Vdz7RE_2nEgorDpmRRXa-18" style="edgeStyle=orthogonalEdgeStyle;rounded=0;orthogonalLoop=1;jettySize=auto;html=1;exitX=0.5;exitY=1;exitDx=0;exitDy=0;entryX=0.5;entryY=0;entryDx=0;entryDy=0;" edge="1" parent="1" source="Vdz7RE_2nEgorDpmRRXa-13" target="Vdz7RE_2nEgorDpmRRXa-17">
          <mxGeometry relative="1" as="geometry" />
        </mxCell>
        <mxCell id="Vdz7RE_2nEgorDpmRRXa-13" value="COMMIT / SAVE TO DATABASE" style="shape=process;whiteSpace=wrap;html=1;backgroundOutline=1;fontSize=11;size=0;" vertex="1" parent="1">
          <mxGeometry x="277" y="670" width="120" height="50" as="geometry" />
        </mxCell>
        <mxCell id="Vdz7RE_2nEgorDpmRRXa-17" value="Migration Successful" style="shape=process;whiteSpace=wrap;html=1;backgroundOutline=1;fontSize=11;size=0;" vertex="1" parent="1">
          <mxGeometry x="145.60000000000002" y="760" width="217.81" height="50" as="geometry" />
        </mxCell>
        <mxCell id="Vdz7RE_2nEgorDpmRRXa-19" value="End" style="html=1;dashed=0;whiteSpace=wrap;shape=mxgraph.dfd.start;fontSize=11;" vertex="1" parent="1">
          <mxGeometry x="174.5" y="830" width="160" height="40" as="geometry" />
        </mxCell>
        <mxCell id="Vdz7RE_2nEgorDpmRRXa-22" style="edgeStyle=orthogonalEdgeStyle;rounded=0;orthogonalLoop=1;jettySize=auto;html=1;exitX=0.5;exitY=1;exitDx=0;exitDy=0;entryX=0.5;entryY=0;entryDx=0;entryDy=0;" edge="1" parent="1" source="Vdz7RE_2nEgorDpmRRXa-20" target="Vdz7RE_2nEgorDpmRRXa-4">
          <mxGeometry relative="1" as="geometry" />
        </mxCell>
        <mxCell id="Vdz7RE_2nEgorDpmRRXa-20" value="Proceed to Fiori and Access &quot;Migrate Your Data&quot; App for the Migration Cockpit&amp;nbsp;&lt;div&gt;process&lt;/div&gt;" style="shape=process;whiteSpace=wrap;html=1;backgroundOutline=1;fontSize=11;size=0;" vertex="1" parent="1">
          <mxGeometry x="145.60000000000002" y="120" width="217.81" height="50" as="geometry" />
        </mxCell>
        <mxCell id="Vdz7RE_2nEgorDpmRRXa-31" style="edgeStyle=orthogonalEdgeStyle;rounded=0;orthogonalLoop=1;jettySize=auto;html=1;exitX=0.5;exitY=1;exitDx=0;exitDy=0;entryX=0.5;entryY=0.5;entryDx=0;entryDy=-20;entryPerimeter=0;" edge="1" parent="1" source="Vdz7RE_2nEgorDpmRRXa-17" target="Vdz7RE_2nEgorDpmRRXa-19">
          <mxGeometry relative="1" as="geometry" />
        </mxCell>
        <mxCell id="Vdz7RE_2nEgorDpmRRXa-37" value="" style="endArrow=none;dashed=1;html=1;rounded=0;" edge="1" parent="1">
          <mxGeometry width="50" height="50" relative="1" as="geometry">
            <mxPoint x="80" y="340" as="sourcePoint" />
            <mxPoint x="430" y="340" as="targetPoint" />
            <Array as="points">
              <mxPoint x="430" y="340" />
              <mxPoint x="70" y="340" />
              <mxPoint x="70" y="540" />
              <mxPoint x="70" y="730" />
              <mxPoint x="430" y="730" />
            </Array>
          </mxGeometry>
        </mxCell>
        <mxCell id="Vdz7RE_2nEgorDpmRRXa-38" value="Development Process" style="text;html=1;align=center;verticalAlign=middle;resizable=0;points=[];autosize=1;strokeColor=none;fillColor=none;fontSize=10;" vertex="1" parent="1">
          <mxGeometry x="65" y="310" width="120" height="30" as="geometry" />
        </mxCell>
      </root>
    </mxGraphModel>
  </diagram>
</mxfile>
